SplineFontDB: 3.0
FontName: morfont
FullName: Morph Font
FamilyName: morfont
Weight: Medium
Copyright: Created by m03r, with FontForge 2.0 (http://fontforge.sf.net)
Version: 001.000
ItalicAngle: 0
UnderlinePosition: -47
UnderlineWidth: 23
Ascent: 667
Descent: 333
sfntRevision: 0x00010000
LayerCount: 2
Layer: 0 0 "Back"  1
Layer: 1 0 "Fore"  0
XUID: [1021 7 518490449 4308329]
FSType: 8
OS2Version: 4
OS2_WeightWidthSlopeOnly: 0
OS2_UseTypoMetrics: 1
CreationTime: 1379190464
ModificationTime: 1379449395
PfmFamily: 17
TTFWeight: 500
TTFWidth: 5
LineGap: 90
VLineGap: 0
Panose: 2 0 6 3 0 0 0 0 0 0
OS2TypoAscent: 0
OS2TypoAOffset: 1
OS2TypoDescent: 0
OS2TypoDOffset: 1
OS2TypoLinegap: 90
OS2WinAscent: 0
OS2WinAOffset: 1
OS2WinDescent: 0
OS2WinDOffset: 1
HheadAscent: 0
HheadAOffset: 1
HheadDescent: 0
HheadDOffset: 1
OS2SubXSize: 650
OS2SubYSize: 700
OS2SubXOff: 0
OS2SubYOff: 140
OS2SupXSize: 650
OS2SupYSize: 700
OS2SupXOff: 0
OS2SupYOff: 480
OS2StrikeYSize: 49
OS2StrikeYPos: 258
OS2Vendor: 'PfEd'
OS2CodePages: 00000001.00000000
OS2UnicodeRanges: 00000201.00000000.00000000.00000000
Lookup: 1 4 0 "'subs' Subscript lookup 0"  {"'subs' Subscript lookup 0-1" ("inferior" ) } ['subs' ('DFLT' <'dflt' > ) ]
Lookup: 4 8 1 "'liga' Standard Ligatures lookup 0"  {"Functions"  "Sub_numbers"  "Arrows"  } ['liga' ('DFLT' <'dflt' > ) ]
Lookup: 258 0 0 "'kern' Horizontal Kerning lookup 0"  {"'kern' Horizontal Kerning lookup 0-1" [150,15,0] } ['kern' ('DFLT' <'dflt' > ) ]
Lookup: 260 0 0 "'mark' Mark Positioning lookup 1"  {"'mark' Mark Positioning lookup 1-1"  } ['mark' ('DFLT' <'dflt' > ) ]
MarkAttachClasses: 1
DEI: 91125
KernClass2: 1 1 "'kern' Horizontal Kerning lookup 0-1" 
 0 {}

StartChar: .notdef
Encoding: 65536 -1 0
Width: 600
Flags: HMW
HStem: 0 50<100 400 100 450> 483 50<100 400 100 100>
VStem: 50 50<50 50 50 483> 400 50<50 483 483 483>
LayerCount: 2
Fore
SplineSet
50 0 m 1
 50 533 l 1
 450 533 l 1
 450 0 l 1
 50 0 l 1
100 50 m 1
 400 50 l 1
 400 483 l 1
 100 483 l 1
 100 50 l 1
EndSplineSet
Validated: 1
EndChar

StartChar: H
Encoding: 72 72 1
Width: 1080
GlyphClass: 2
Flags: HMW
HStem: -1 21G<96 196 96 96 496 596 496 496 896 896 896 996> 657 84<196 496 196 196 596 896 596 596>
VStem: 96 100<-1 657 -1 741 -1 741> 496 100<-1 657 -1 657> 896 100<-1 657 657 657>
CounterMasks: 1 38
LayerCount: 2
Fore
SplineSet
896 657 m 1
 596 657 l 1
 596 -1 l 1
 496 -1 l 1
 496 657 l 1
 196 657 l 1
 196 -1 l 1
 96 -1 l 1
 96 741 l 1
 996 741 l 1
 996 -1 l 1
 896 -1 l 1
 896 657 l 1
EndSplineSet
Validated: 1
EndChar

StartChar: T
Encoding: 84 84 2
Width: 889
GlyphClass: 2
Flags: HMW
HStem: 0 19<299.5 591.5 299.5 299.5> 620 42<283.5 339.5 339.5 393.5 495.5 495.5 495.5 549.5>
VStem: 156.5 24<492 492> 393.5 102<120 620> 708.5 24<492 492>
CounterMasks: 1 38
AnchorPoint: "aj" 0 0 basechar 0
AnchorPoint: "subdegree" 448.5 0 basechar 0
LayerCount: 2
Fore
SplineSet
393.5 620 m 1
 339.5 620 l 2
 227.5 620 204.5 601 180.5 492 c 1
 156.5 492 l 1
 162.5 662 l 1
 726.5 662 l 1
 732.5 492 l 1
 708.5 492 l 1
 685.5 602 663.5 620 549.5 620 c 2
 495.5 620 l 1
 495.5 109 l 2
 495.5 36 509.5 23 591.5 19 c 1
 591.5 0 l 1
 494.167 -0 396.833 0 299.5 0 c 1
 299.5 19 l 1
 382.5 24 393.5 35 393.5 120 c 2
 393.5 620 l 1
EndSplineSet
Validated: 1
EndChar

StartChar: grave
Encoding: 96 96 3
Width: 610
GlyphClass: 5
Flags: HMW
HStem: 105 156
VStem: 141 313
LayerCount: 2
Fore
SplineSet
454 228 m 1
 154 105 l 1
 141 138 l 1
 440 262 l 1
 454 228 l 1
EndSplineSet
Validated: 1
EndChar

StartChar: h
Encoding: 104 104 4
Width: 1080
GlyphClass: 2
Flags: HMW
HStem: 0 84<190 490 590 890>
VStem: 90 100<84 84 84 742> 490 100<84 742 84 742> 890 100<84 742 0 742>
CounterMasks: 1 70
LayerCount: 2
Fore
SplineSet
190 84 m 1
 490 84 l 1
 490 742 l 1
 590 742 l 1
 590 84 l 1
 890 84 l 1
 890 742 l 1
 990 742 l 1
 990 0 l 1
 90 0 l 1
 90 742 l 1
 190 742 l 1
 190 84 l 1
EndSplineSet
Validated: 1
EndChar

StartChar: T_w1
Encoding: 1196 1196 5
Width: 889
GlyphClass: 3
Flags: HMW
HStem: 0 19<299.5 591.5 299.5 299.5> 620 42<283.5 339.5 339.5 393.5 495.5 495.5 495.5 549.5>
VStem: 156.5 24<492 492> 393.5 102<120 145 145 145 184 187 226 620> 708.5 24<492 492>
CounterMasks: 1 38
AnchorPoint: "aj" 0 0 basechar 0
AnchorPoint: "subdegree" 448.5 0 basechar 0
LayerCount: 2
Fore
SplineSet
393.5 620 m 1
 339.5 620 l 2
 227.5 620 204.5 601 180.5 492 c 1
 156.5 492 l 1
 162.5 662 l 1
 726.5 662 l 1
 732.5 492 l 1
 708.5 492 l 1
 685.5 602 663.5 620 549.5 620 c 2
 495.5 620 l 1
 495.5 226 l 1
 587.5 263 l 1
 601.5 230 l 1
 495.5 187 l 1
 495.5 109 l 2
 495.5 36 509.5 23 591.5 19 c 1
 591.5 0 l 1
 494.167 0 396.833 0 299.5 0 c 1
 299.5 19 l 1
 382.5 24 393.5 35 393.5 120 c 2
 393.5 145 l 1
 301.5 108 l 1
 287.5 141 l 1
 393.5 184 l 1
 393.5 620 l 1
EndSplineSet
Validated: 1
LCarets2: 1 0 
Ligature2: "Functions" T grave
EndChar

StartChar: second_1
Encoding: 1320 1320 6
Width: 1080
GlyphClass: 3
Flags: HMW
HStem: 0 84<190 490 590 890>
VStem: 90 100<84 84 84 742> 490 100<84 603 84 608 84 608> 890 100<84 742 0 742>
CounterMasks: 1 70
LayerCount: 2
Fore
SplineSet
190 84 m 1
 490 84 l 1
 490 258.667 490 433.333 490 608 c 5
 695 745 l 1
 728 695 l 1
 590 603 l 1
 590 84 l 1
 890 84 l 1
 890 742 l 1
 990 742 l 1
 990 0 l 1
 90 0 l 1
 90 742 l 1
 190 742 l 1
 190 84 l 1
EndSplineSet
Validated: 1
LCarets2: 1 0 
Ligature2: "Functions" h grave
EndChar

StartChar: second_2
Encoding: 1321 1321 7
Width: 1080
GlyphClass: 3
Flags: HMW
HStem: 0 84<190 490 590 890>
VStem: 90 100<84 84 84 742> 490 100<84 456 528 603> 890 100<84 742 0 742>
CounterMasks: 1 70
LayerCount: 2
Fore
SplineSet
190 84 m 1
 490 84 l 1
 490 258.667 490 433.333 490 608 c 5
 695 745 l 1
 728 695 l 1
 590 603 l 1
 590 528 l 1
 695 598 l 1
 728 548 l 1
 590 456 l 1
 590 84 l 1
 890 84 l 1
 890 742 l 1
 990 742 l 1
 990 0 l 1
 90 0 l 1
 90 742 l 1
 190 742 l 1
 190 84 l 1
EndSplineSet
Validated: 1
LCarets2: 2 0 0 
Ligature2: "Functions" h grave grave
EndChar

StartChar: second_3
Encoding: 1322 1322 8
Width: 1080
GlyphClass: 3
Flags: HMW
HStem: 0 84<190 190 590 890>
VStem: 90 100<84 84 84 742> 490 100<84 308 380 456 528 603> 890 100<84 742 0 742>
CounterMasks: 1 70
LayerCount: 2
Fore
SplineSet
190 84 m 1
 490 84 l 1
 490 608 l 6
 695 745 l 1
 728 695 l 1
 590 603 l 1
 590 528 l 1
 695 598 l 1
 728 548 l 1
 590 456 l 1
 590 380 l 1
 695 449 l 1
 728 399 l 1
 590 308 l 1
 590 84 l 1
 890 84 l 1
 890 742 l 1
 990 742 l 1
 990 0 l 1
 90 0 l 1
 90 742 l 1
 190 742 l 1
 190 84 l 1
EndSplineSet
Validated: 1
LCarets2: 3 0 0 0 
Ligature2: "Functions" h grave grave grave
EndChar

StartChar: second_4
Encoding: 1323 1323 9
Width: 1350
VWidth: 1250
GlyphClass: 3
Flags: HMW
HStem: 0 105<237.5 237.5 737.5 1112.5>
VStem: 112.5 125<105 105 105 927.5> 612.5 125<105 198.75 288.75 385 475 570 660 753.75> 1112.5 125<105 927.5 0 927.5>
CounterMasks: 1 70
LayerCount: 2
Fore
SplineSet
190 84 m 1
 490 84 l 1
 490 258.667 490 433.333 490 608 c 21
 695 745 l 1
 728 695 l 1
 590 603 l 1
 590 528 l 1
 695 598 l 1
 728 548 l 1
 590 456 l 1
 590 380 l 1
 695 449 l 1
 728 399 l 1
 590 308 l 1
 590 231 l 1
 695 301 l 1
 728 251 l 1
 590 159 l 1
 590 84 l 1
 890 84 l 1
 890 742 l 1
 990 742 l 1
 990 0 l 1
 90 0 l 1
 90 742 l 1
 190 742 l 1
 190 84 l 1
EndSplineSet
Validated: 1
LCarets2: 4 0 0 0 0 
Ligature2: "Functions" h grave grave grave grave
EndChar

StartChar: sub_2
Encoding: 8322 8322 11
Width: 216
VWidth: 516
GlyphClass: 4
Flags: W
HStem: -291 41<80 183> -58 42<44.1091 121.55>
VStem: 132 63<-151.691 -67.0819>
AnchorPoint: "subdegree" 108 0 mark 0
LayerCount: 2
Fore
SplineSet
9 -98 m 1
 18 -72 33 -16 107 -16 c 0
 159 -16 195 -46 195 -88 c 0
 195 -121 178 -154 138 -194 c 2
 80 -250 l 1
 162 -250 l 2
 180 -250 186 -247 197 -232 c 1
 207 -237 l 1
 183 -291 l 1
 12 -291 l 1
 12 -279 l 1
 78 -207 l 2
 111 -171 132 -132 132 -111 c 0
 132 -83 111 -58 84 -58 c 0
 58 -58 41 -73 26 -106 c 1
 9 -98 l 1
EndSplineSet
Validated: 1
Ligature2: "Sub_numbers" underscore two
EndChar

StartChar: sub_4
Encoding: 8324 8324 12
Width: 194
VWidth: 752
GlyphClass: 4
Flags: W
HStem: -238.301 36.7207<39.0195 126.14 171.5 207.5>
VStem: 126.14 45.3604<-296.621 -238.301 -201.58 -85.6602>
AnchorPoint: "subdegree" 108 0 mark 0
LayerCount: 2
Fore
SplineSet
207.5 -201.58 m 1
 207.5 -238.301 l 1
 171.5 -238.301 l 1
 171.5 -296.621 l 1
 126.14 -296.621 l 1
 126.14 -238.301 l 1
 9.5 -238.301 l 1
 9.5 -206.62 l 1
 141.261 -35.2598 l 1
 171.5 -35.2598 l 1
 171.5 -201.58 l 1
 207.5 -201.58 l 1
126.14 -201.58 m 1
 126.14 -85.6602 l 1
 39.0195 -201.58 l 1
 126.14 -201.58 l 1
EndSplineSet
Validated: 1
Ligature2: "Sub_numbers" underscore four
EndChar

StartChar: sub_5
Encoding: 8325 8325 13
Width: 216
VWidth: 517
GlyphClass: 4
Flags: W
HStem: -295 31<61.4731 136.914> -58 42<84 185.906>
VStem: 156 48<-251.284 -161.374>
AnchorPoint: "subdegree" 108 0 mark 0
LayerCount: 2
Fore
SplineSet
204 -192 m 0
 204 -253 150 -295 69 -295 c 0
 39 -295 12 -286 12 -262 c 0
 12 -249 23 -237 36 -237 c 0
 58 -237 66 -264 99 -264 c 0
 126 -264 156 -240 156 -213 c 0
 156 -175 136 -152 84 -136 c 0
 64 -130 46 -123 32 -123 c 0
 29 -123 24 -122 24 -120 c 0
 24 -118 24 -117 24 -115 c 2
 75 -16 l 1
 179 -16 l 2
 188 -16 192 -14 200 -6 c 1
 204 -9 l 1
 186 -54 l 2
 184 -57 182 -58 174 -58 c 2
 84 -58 l 1
 68 -82 l 1
 152 -96 204 -126 204 -192 c 0
EndSplineSet
Validated: 1
Ligature2: "Sub_numbers" underscore five
EndChar

StartChar: sub_6
Encoding: 8326 8326 14
Width: 216
VWidth: 516
GlyphClass: 4
Flags: W
HStem: -296 18<88.2296 139.098> -138 25<78.8468 134.898> -34 20<157.338 200>
VStem: 5 55<-253.867 -124.963> 158 54<-264.148 -151.282>
AnchorPoint: "subdegree" 108 0 mark 0
LayerCount: 2
Fore
SplineSet
111 -296 m 0
 47 -296 5 -250 5 -178 c 0
 5 -115 35 -26 200 -14 c 1
 200 -34 l 1
 136 -43 84 -71 72 -131 c 1
 88 -115 103 -113 119 -113 c 0
 177 -113 212 -148 212 -202 c 0
 212 -259 173 -296 111 -296 c 0
102 -138 m 0
 92 -138 60 -148 60 -192 c 0
 60 -250 83 -278 116 -278 c 0
 142 -278 158 -255 158 -215 c 0
 158 -167 137 -138 102 -138 c 0
EndSplineSet
Validated: 1
Ligature2: "Sub_numbers" underscore six
EndChar

StartChar: sub_7
Encoding: 8327 8327 15
Width: 216
VWidth: 517
GlyphClass: 4
Flags: W
HStem: -57 39<23.2791 156>
VStem: 8 201
AnchorPoint: "subdegree" 108 0 mark 0
LayerCount: 2
Fore
SplineSet
209 -18 m 1
 209 -27 l 1
 113 -291 l 1
 65 -291 l 1
 156 -57 l 1
 71 -57 l 2
 46 -57 36 -61 15 -85 c 1
 8 -82 l 1
 23 -18 l 1
 209 -18 l 1
EndSplineSet
Validated: 1
Ligature2: "Sub_numbers" underscore seven
EndChar

StartChar: sub_8
Encoding: 8328 8328 16
Width: 216
VWidth: 516
GlyphClass: 4
Flags: W
HStem: -296 18<76.9717 137.495> -30 16<70.3451 130.412>
VStem: 9 48<-270.465 -182.806 -106.735 -35.7533> 152 55<-273.143 -200.429> 152 42<-111.999 -38.4195>
AnchorPoint: "subdegree" 108 0 mark 0
LayerCount: 2
Fore
SplineSet
129 -137 m 1xe8
 197 -173 207 -193 207 -226 c 0xf0
 207 -268 171 -296 101 -296 c 0
 47 -296 9 -267 9 -227 c 0
 9 -200 20 -189 65 -156 c 1
 17 -118 9 -107 9 -80 c 0
 9 -41 47 -14 102 -14 c 0
 154 -14 194 -40 194 -74 c 0
 194 -101 177 -116 129 -137 c 1xe8
108 -185 m 1
 83 -168 l 1
 65 -186 57 -202 57 -224 c 0
 57 -258 78 -278 105 -278 c 0
 137 -278 152 -264 152 -238 c 0
 152 -217 137 -203 108 -185 c 1
110 -126 m 1
 137 -111 152 -96 152 -74 c 0xe8
 152 -47 129 -30 99 -30 c 0
 72 -30 53 -46 53 -68 c 0
 53 -89 70 -105 110 -126 c 1
EndSplineSet
Validated: 1
Ligature2: "Sub_numbers" underscore eight
EndChar

StartChar: sub_9
Encoding: 8329 8329 17
Width: 216
VWidth: 515
GlyphClass: 4
Flags: W
HStem: -299 20<17 59.5229> -200 26<79.9794 137.983> -33 18<77.6565 128.176>
VStem: 5 54<-161.387 -47.707> 156 56<-187.382 -58.0226>
AnchorPoint: "subdegree" 108 0 mark 0
LayerCount: 2
Fore
SplineSet
105 -15 m 0
 169 -15 212 -63 212 -135 c 0
 212 -198 182 -287 17 -299 c 1
 17 -279 l 1
 81 -270 132 -242 144 -182 c 1
 128 -198 114 -200 98 -200 c 0
 40 -200 5 -165 5 -111 c 0
 5 -54 43 -15 105 -15 c 0
114 -174 m 0
 124 -174 156 -163 156 -120 c 0
 156 -62 134 -33 101 -33 c 0
 76 -33 59 -57 59 -98 c 0
 59 -146 79 -174 114 -174 c 0
EndSplineSet
Validated: 1
Ligature2: "Sub_numbers" underscore nine
EndChar

StartChar: sub_0
Encoding: 8320 8320 18
Width: 216
GlyphClass: 4
Flags: W
HStem: -297 20<83.7662 129.782> -33 18<84.7992 129.477>
VStem: 3 51<-245.992 -62.9062> 156 57<-244.231 -63.7581>
AnchorPoint: "subdegree" 108 0 mark 0
LayerCount: 2
Fore
SplineSet
3 -153 m 0
 3 -42 68 -15 108 -15 c 0
 173 -15 213 -72 213 -156 c 0
 213 -240 167 -297 108 -297 c 0
 68 -297 3 -267 3 -153 c 0
108 -33 m 0
 74 -33 54 -76 54 -156 c 0
 54 -240 77 -277 108 -277 c 0
 140 -277 156 -228 156 -156 c 0
 156 -74 141 -33 108 -33 c 0
EndSplineSet
Validated: 1
Ligature2: "Sub_numbers" underscore zero
EndChar

StartChar: sub_1
Encoding: 8321 8321 19
Width: 216
VWidth: 516
GlyphClass: 4
Flags: W
HStem: -291 17<44 76.6766 138.673 173>
VStem: 80 54<-272.275 -60.0037>
AnchorPoint: "subdegree" 108 0 mark 0
LayerCount: 2
Fore
SplineSet
173 -274 m 1
 173 -291 l 1
 44 -291 l 1
 44 -274 l 1
 72 -272 80 -269 80 -254 c 2
 80 -80 l 2
 80 -65 78 -60 74 -60 c 0
 70 -60 70 -60 45 -69 c 1
 45 -54 l 1
 125 -16 l 1
 134 -18 l 1
 134 -250 l 2
 134 -268 141 -272 173 -274 c 1
EndSplineSet
Validated: 1
Ligature2: "Sub_numbers" underscore one
EndChar

StartChar: sub_3
Encoding: 8323 8323 20
Width: 216
VWidth: 515
GlyphClass: 4
Flags: W
HStem: -297 31<64.247 134.997> -56 38<54.0773 129.506>
VStem: 132 51<-114.092 -58.2999> 147 54<-257.946 -175.946>
AnchorPoint: "subdegree" 108 0 mark 0
LayerCount: 2
Fore
SplineSet
147 -219 m 0xd0
 147 -173 101 -162 87 -162 c 0
 83 -162 80 -162 68 -164 c 1
 68 -144 l 1
 114 -128 132 -112 132 -88 c 0
 132 -67 117 -56 93 -56 c 0
 71 -56 57 -66 36 -94 c 1
 20 -82 l 1
 44 -36 71 -18 111 -18 c 0
 152 -18 183 -42 183 -74 c 0xe0
 183 -94 171 -108 143 -129 c 1
 182 -144 201 -172 201 -206 c 0
 201 -258 146 -297 71 -297 c 0
 37 -297 15 -285 15 -264 c 0
 15 -250 24 -238 38 -238 c 0
 60 -238 68 -266 101 -266 c 0
 128 -266 147 -246 147 -219 c 0xd0
EndSplineSet
Validated: 1
Ligature2: "Sub_numbers" underscore three
EndChar

StartChar: three
Encoding: 51 51 21
Width: 500
Flags: W
HStem: -14 36<121 266.542> 330 13<153 169.332> 616 60<150.683 278.881>
VStem: 319 79<466.86 574.859> 360 72<122.197 253.069>
LayerCount: 2
Fore
SplineSet
81 78 m 0xe8
 130 78 165 22 229 22 c 0
 303 22 360 87 360 171 c 0xe8
 360 308 238 330 153 330 c 1
 153 343 l 1
 228 369 319 409 319 509 c 0
 319 572 274 616 209 616 c 0
 146 616 101 583 60 510 c 1
 45 514 l 1
 72 589 120 676 242 676 c 0
 334 676 398 620 398 539 c 0xf0
 398 485 373 448 304 401 c 1
 371 372 432 328 432 219 c 0
 432 75 311 -14 156 -14 c 0
 86 -14 43 8 43 43 c 0
 43 64 58 78 81 78 c 0xe8
EndSplineSet
Validated: 1
Substitution2: "'subs' Subscript lookup 0-1" sub_3
EndChar

StartChar: zero
Encoding: 48 48 22
Width: 500
Flags: W
HStem: -14 26<206.315 293.685> 650 26<207.662 294.79>
VStem: 24 96<178.035 489.425> 380 96<176.235 487.191>
LayerCount: 2
Fore
SplineSet
250 -14 m 0
 112 -14 24 134 24 336 c 0
 24 522 108 676 254 676 c 0
 385 676 476 535 476 330 c 0
 476 130 388 -14 250 -14 c 0
251 650 m 0
 165 650 120 539 120 327 c 0
 120 119 164 12 250 12 c 0
 336 12 380 119 380 328 c 0
 380 537 335 650 251 650 c 0
EndSplineSet
Validated: 1
EndChar

StartChar: one
Encoding: 49 49 23
Width: 500
Flags: W
HStem: 0 15<118 175.492 327.46 394>
VStem: 213 86<30.3918 592.105>
LayerCount: 2
Fore
SplineSet
183 593 m 0
 168 593 150 587 111 571 c 1
 111 585 l 1
 291 676 l 1
 299 674 l 1
 299 74 l 2
 299 26 315 16 394 15 c 1
 394 0 l 1
 118 0 l 1
 118 15 l 1
 189 17 213 28 213 93 c 2
 213 546 l 2
 213 578 204 593 183 593 c 0
EndSplineSet
Validated: 1
EndChar

StartChar: two
Encoding: 50 50 24
Width: 500
Flags: W
HStem: 0 76<128 420> 602 74<145.449 276.259>
VStem: 31 21<475.333 493.776> 338 86<399.953 539.691>
LayerCount: 2
Fore
SplineSet
31 477 m 1
 42 524 78 676 239 676 c 0
 343 676 424 599 424 499 c 0
 424 421 385 345 296 252 c 2
 128 76 l 1
 367 76 l 2
 412 76 425 85 462 142 c 1
 475 137 l 1
 420 0 l 1
 30 0 l 1
 30 12 l 1
 208 201 l 2
 292 290 338 383 338 461 c 0
 338 545 281 602 197 602 c 0
 128 602 92 570 52 472 c 1
 31 477 l 1
EndSplineSet
Validated: 1
EndChar

StartChar: four
Encoding: 52 52 25
Width: 500
Flags: W
HStem: 0 21G<293 370> 167 64<52 292 370 472>
VStem: 292 78<0 167 231 574>
LayerCount: 2
Fore
SplineSet
472 231 m 1
 472 167 l 1
 370 167 l 1
 370 0 l 1
 293 0 l 1
 293 167 l 1
 12 167 l 1
 12 231 l 1
 326 676 l 1
 370 676 l 1
 370 231 l 1
 472 231 l 1
292 231 m 1
 292 574 l 1
 52 231 l 1
 292 231 l 1
EndSplineSet
Validated: 1
EndChar

StartChar: five
Encoding: 53 53 26
Width: 500
Flags: W
HStem: -14 37<116.5 263.673> 583 79<181 404.906>
VStem: 357 70<129.577 283.38>
LayerCount: 2
Fore
SplineSet
357 194 m 0
 357 380 138 412 76 412 c 0
 68 412 64 415 64 420 c 0
 64 422 64 423 65 425 c 2
 174 662 l 1
 383 662 l 2
 404 662 414 667 429 688 c 1
 438 681 l 1
 400 592 l 2
 397 585 393 583 377 583 c 2
 181 583 l 1
 139 498 l 1
 325 465 427 398 427 242 c 0
 427 37 260 -14 154 -14 c 0
 79 -14 32 10 32 48 c 0
 32 73 46 85 75 85 c 0
 131 85 165 23 218 23 c 0
 296 23 357 98 357 194 c 0
EndSplineSet
Validated: 1
EndChar

StartChar: six
Encoding: 54 54 27
Width: 500
Flags: W
HStem: -14 28<216.005 318.198> 382 46<193.693 311.431> 668 16<413.584 446.875>
VStem: 34 93<143.868 349.314> 378 90<108.382 303.96>
LayerCount: 2
Fore
SplineSet
258 -14 m 0
 124 -14 34 103 34 279 c 0
 34 396 91 653 446 684 c 1
 448 668 l 1
 291 642 179 534 152 383 c 1
 215 421 236 428 280 428 c 0
 395 428 468 347 468 219 c 0
 468 81 382 -14 258 -14 c 0
242 382 m 0
 144 382 127 333 127 263 c 0
 127 108 181 14 269 14 c 0
 339 14 378 75 378 185 c 0
 378 310 328 382 242 382 c 0
EndSplineSet
Validated: 1
EndChar

StartChar: seven
Encoding: 55 55 28
Width: 500
Flags: W
HStem: 588 74<82.7287 370>
VStem: 172 65<-8 13.0707>
LayerCount: 2
Fore
SplineSet
449 662 m 1
 449 646 l 1
 237 -8 l 1
 172 -8 l 1
 370 588 l 1
 153 588 l 2
 98 588 80 575 37 507 c 1
 20 515 l 1
 79 662 l 1
 449 662 l 1
EndSplineSet
Validated: 1
EndChar

StartChar: eight
Encoding: 56 56 29
Width: 500
Flags: W
HStem: -14 28<201.928 315.579> 648 28<187.998 301.542>
VStem: 56 76<72.674 231.964 486.907 581.558> 355 69<458.651 605.856> 369 76<69.9236 197.25>
LayerCount: 2
Fore
SplineSet
290 371 m 1xf0
 411 281 445 232 445 155 c 0xe8
 445 52 368 -14 248 -14 c 0
 135 -14 56 54 56 151 c 0
 56 219 78 250 186 332 c 1
 81 424 62 453 62 518 c 0
 62 609 143 676 252 676 c 0
 352 676 424 616 424 534 c 0
 424 466 389 424 290 371 c 1xf0
212 312 m 1
 154 265 132 223 132 159 c 0
 132 72 183 14 259 14 c 0
 324 14 369 59 369 124 c 0
 369 208 310 240 212 312 c 1
261 389 m 1
 289 410 355 447 355 535 c 0xf0
 355 604 312 648 244 648 c 0
 181 648 136 607 136 549 c 0
 136 493 172 447 261 389 c 1
EndSplineSet
Validated: 1
EndChar

StartChar: nine
Encoding: 57 57 30
Width: 500
Flags: W
HStem: -22 20<57.95 91.2932> 237 43<184.464 304.28> 648 28<183.476 279.981>
VStem: 30 92<356.674 548.319> 362 97<311.018 520.293>
LayerCount: 2
Fore
SplineSet
59 -22 m 1
 56 -2 l 1
 208 24 319 131 360 294 c 1
 307 253 265 237 210 237 c 0
 102 237 30 318 30 440 c 0
 30 575 119 676 238 676 c 0
 367 676 459 559 459 394 c 0
 459 283 413 19 59 -22 c 1
246 280 m 0
 274 280 362 295 362 355 c 2
 362 394 l 2
 362 562 317 648 230 648 c 0
 144 648 122 548 122 474 c 0
 122 355 170 280 246 280 c 0
EndSplineSet
Validated: 1
EndChar

StartChar: underscore
Encoding: 95 95 31
Width: 500
GlyphClass: 5
Flags: W
HStem: -125 50<0 500>
LayerCount: 2
Fore
SplineSet
500 -125 m 1
 0 -125 l 1
 0 -75 l 1
 500 -75 l 1
 500 -125 l 1
EndSplineSet
Validated: 1
EndChar

StartChar: D
Encoding: 68 68 32
Width: 889
Flags: W
HStem: 0 37<303.591 486.974> 0 19<110 165.978> 625 37<303.033 475.667> 643 19<110 165.416>
VStem: 198 102<41.3888 621.94> 670 109<210.722 451.324>
AnchorPoint: "aj" 0 0 basechar 0
AnchorPoint: "subdegree" 487.333 0.166667 basechar 0
LayerCount: 2
Fore
SplineSet
779 334 m 0x2c
 779 196 702 0 394 0 c 2xac
 110 0 l 1
 110 19 l 1
 186 24 198 37 198 109 c 2
 198 553 l 2
 198 627 189 636 110 643 c 1
 110 662 l 1x5c
 380 662 l 2
 697 662 779 479 779 334 c 0x2c
670 327 m 0
 670 461 606 625 352 625 c 0
 311 625 300 617 300 586 c 2
 300 78 l 2
 300 46 312 37 352 37 c 0
 540 37 670 110 670 327 c 0
EndSplineSet
Validated: 1
EndChar

StartChar: S
Encoding: 83 83 33
Width: 889
Flags: W
HStem: 20 2<300 445> 635 41<371.969 517.205>
VStem: 249 86<484.127 588.923> 250 22<-13 12.7146> 568 101<84.0294 202.661>
AnchorPoint: "aj" 0 0 basechar 0
LayerCount: 2
Fore
SplineSet
568 135 m 0xd8
 568 306 249 300 249 505 c 0
 249 611 333 676 422 676 c 0
 496 676 541 642 572 642 c 0
 589 642 600 653 604 676 c 1
 625 676 l 1
 647 463 l 1
 622 463 l 1
 588 587 512 635 439 635 c 0
 377 635 335 597 335 542 c 0xe8
 335 488 377 444 482 386 c 1
 614 315 669 250 669 168 c 0
 669 65 580 -14 465 -14 c 0
 378 -14 337 20 300 20 c 0
 285 20 273 6 272 -13 c 1
 250 -13 l 1
 220 199 l 1
 243 199 l 1
 293 77 356 22 445 22 c 0
 518 22 568 68 568 135 c 0xd8
EndSplineSet
Validated: 1048577
EndChar

StartChar: M
Encoding: 77 77 34
Width: 889
Flags: W
HStem: 0 19<19 71.5662 202.313 254 590 646.112 817.474 870> 643 19<21 81.4103 817.031 870>
VStem: 116 44<43.3196 550> 681 102<35.3481 571.481>
AnchorPoint: "subdegree" 443 0 basechar 0
AnchorPoint: "aj" 0 0 basechar 0
LayerCount: 2
Fore
SplineSet
681 573 m 1
 425 0 l 1
 411 0 l 1
 160 550 l 1
 160 147 l 2
 160 46 177 23 254 19 c 1
 254 0 l 1
 19 0 l 1
 19 19 l 1
 102 25 116 44 116 147 c 2
 116 553 l 2
 116 626 103 638 21 643 c 1
 21 662 l 1
 219 662 l 1
 450 157 l 1
 671 662 l 1
 870 662 l 1
 870 643 l 1
 796 637 783 624 783 553 c 2
 783 109 l 2
 783 38 797 24 870 19 c 1
 870 0 l 1
 590 0 l 1
 590 19 l 1
 669 24 681 37 681 120 c 2
 681 573 l 1
EndSplineSet
Validated: 1
EndChar

StartChar: m
Encoding: 109 109 35
Width: 889
Flags: W
HStem: 0 15<65 108.999 242.193 287 335 376.029 515.503 559 605 643.007 798 824> 398 17<68 96.9731> 408 52<295.541 382.777 553.129 652.802>
VStem: 135 84<24.384 372.979 383 399.885> 403 84<26.085 373.205> 671 84<25.1622 390.068>
CounterMasks: 1 1c
AnchorPoint: "subdegree" 444 0 basechar 0
AnchorPoint: "aj" 0 0 basechar 0
LayerCount: 2
Fore
SplineSet
68 398 m 1xdc
 68 415 l 1xdc
 123 430 157 441 208 460 c 1
 215 458 l 1
 215 383 l 1
 298 446 326 460 370 460 c 0
 424 460 458 433 476 376 c 1
 530 434 581 460 639 460 c 0
 716 460 755 400 755 282 c 2
 755 76 l 2
 755 37 768 19 798 17 c 2
 824 15 l 1
 824 0 l 1
 605 0 l 1
 605 15 l 1
 663 22 671 30 671 87 c 2
 671 298 l 2
 671 381 653 408 596 408 c 0
 550 408 517 390 487 347 c 1
 487 95 l 2
 487 33 502 16 559 15 c 1
 559 0 l 1
 335 0 l 1
 335 15 l 1
 392 19 403 30 403 86 c 2
 403 303 l 2
 403 373 381 408 337 408 c 0xbc
 307.718 408 250.384 394.65 219 349 c 1
 219 67 l 2
 219 28 234 17 287 15 c 1
 287 0 l 1
 65 0 l 1
 65 15 l 1
 121 16 135 31 135 85 c 2
 135 338 l 2
 135 386 126 402 100 402 c 0
 89 402 81 401 68 398 c 1xdc
EndSplineSet
Validated: 1
EndChar

StartChar: p
Encoding: 112 112 36
Width: 889
Flags: W
HStem: -217 17<212 254.379 394.888 454> -10 32<411.607 521.088> 393 16<216 240.465> 400 60<429.787 528.589>
VStem: 282 84<-188.428 33 53.9336 369.399 381 392.004> 591 86<133.177 323.133>
LayerCount: 2
Fore
SplineSet
216 393 m 1xec
 216 409 l 1xec
 271 426 306 439 360 460 c 1
 366 458 l 1
 366 381 l 1
 410 435 454 460 510 460 c 0xdc
 607 460 677 371 677 247 c 0
 677 102 585 -10 467 -10 c 0
 425 -10 401 0 366 33 c 1
 366 -124 l 2
 366 -187 379 -198 454 -199 c 1
 454 -217 l 1
 212 -217 l 1
 212 -200 l 1
 271 -194 282 -183 282 -131 c 2
 282 337 l 2
 282 384 275 394 241 394 c 0
 232 394 225 394 216 393 c 1xec
366 334 m 2
 366 88 l 2
 366 58 423 22 470 22 c 0
 542 22 591 97 591 208 c 0
 591 324 542 400 468 400 c 0xdc
 422 400 366 364 366 334 c 2
EndSplineSet
Validated: 1
EndChar

StartChar: W
Encoding: 87 87 37
Width: 889
Flags: W
HStem: 0 19<21 81.4103 817.031 870> 643 19<19 71.5662 202.313 254 590 646.112 817.474 870>
VStem: 116 44<112 618.68> 681 102<90.5185 626.652>
AnchorPoint: "subdegree" 444 0 basechar 0
AnchorPoint: "aj" 0 0 basechar 0
LayerCount: 2
Fore
SplineSet
681 89 m 1
 681 542 l 2
 681 625 669 638 590 643 c 1
 590 662 l 1
 870 662 l 1
 870 643 l 1
 797 638 783 624 783 553 c 2
 783 109 l 2
 783 38 796 25 870 19 c 1
 870 0 l 1
 671 0 l 1
 450 505 l 1
 219 0 l 1
 21 0 l 1
 21 19 l 1
 103 24 116 36 116 109 c 2
 116 515 l 2
 116 618 102 637 19 643 c 1
 19 662 l 1
 254 662 l 1
 254 643 l 1
 177 639 160 616 160 515 c 2
 160 112 l 1
 411 662 l 1
 425 662 l 1
 681 89 l 1
EndSplineSet
Validated: 1
EndChar

StartChar: w
Encoding: 119 119 38
Width: 889
Flags: W
HStem: 0 52<295.553 382.777 553.129 652.802> 45 17<68 96.9731> 445 15<65 108.999 242.193 287 335 376.029 515.503 559 605 643.007 798 824>
VStem: 135 84<60.1146 77 86.8858 435.616> 403 84<86.7954 433.915> 671 84<69.9324 434.838>
CounterMasks: 1 1c
AnchorPoint: "subdegree" 444 0 basechar 0
AnchorPoint: "aj" 0 0 basechar 0
LayerCount: 2
Fore
SplineSet
68 62 m 1x7c
 81 59 89 58 100 58 c 0
 126 58 135 74 135 122 c 2
 135 375 l 2
 135 429 121 444 65 445 c 1
 65 460 l 1
 287 460 l 1
 287 445 l 1
 234 443 219 432 219 393 c 2
 219 111 l 1
 250 65 308 52 337 52 c 0
 381 52 403 87 403 157 c 2
 403 374 l 2
 403 430 392 441 335 445 c 1
 335 460 l 1
 559 460 l 1
 559 445 l 1
 502 444 487 427 487 365 c 2
 487 113 l 1
 517 70 550 52 596 52 c 0
 653 52 671 79 671 162 c 2
 671 373 l 2
 671 430 663 438 605 445 c 1
 605 460 l 1
 824 460 l 1
 824 445 l 1
 798 443 l 2
 768 441 755 423 755 384 c 2
 755 178 l 2
 755 60 716 0 639 0 c 0
 581 0 530 26 476 84 c 1
 458 27 424 0 370 0 c 0
 326 0 298 14 215 77 c 1
 215 2 l 1
 208 0 l 1xbc
 157 19 123 30 68 45 c 1
 68 62 l 1x7c
EndSplineSet
Validated: 1
EndChar

StartChar: Scedilla
Encoding: 350 350 39
Width: 889
Flags: W
HStem: 20 2<300 445> 635 41<371.969 517.205>
VStem: 249 86<484.127 588.923> 250 22<-13 12.7146> 568 101<84.0294 202.661>
AnchorPoint: "aj" 0 0 basechar 0
AnchorPoint: "subdegree" 492 0 basechar 0
LayerCount: 2
Fore
SplineSet
568 135 m 0xd8
 568 306 249 300 249 505 c 0
 249 611 333 676 422 676 c 0
 496 676 541 642 572 642 c 0
 589 642 600 653 604 676 c 1
 625 676 l 1
 647 463 l 1
 622 463 l 1
 588 587 512 635 439 635 c 0
 377 635 335 597 335 542 c 0xe8
 335 488 377 444 482 386 c 1
 614 315 669 250 669 168 c 0
 669 65 580 -14 465 -14 c 0
 378 -14 337 20 300 20 c 0
 285 20 273 6 272 -13 c 1
 250 -13 l 1
 236 84 l 1
 104 30 l 1
 92 63 l 1
 231 121 l 1
 220 199 l 1
 243 199 l 1
 252 176 262 156 272 138 c 1
 390 187 l 1
 404 153 l 1
 292 107 l 1
 333 49 383 22 445 22 c 0
 518 22 568 68 568 135 c 0xd8
EndSplineSet
Validated: 1
LCarets2: 1 0 
Ligature2: "Functions" S grave
EndChar

StartChar: Dcroat
Encoding: 272 272 40
Width: 889
Flags: W
HStem: 0 37<303.591 490.231> 0 19<110 165.978> 625 37<303.033 475.667> 643 19<110 165.416>
VStem: 198 102<41.3888 621.94> 670 109<209.165 451.324>
AnchorPoint: "aj" 0 0 basechar 0
AnchorPoint: "subdegree" 466.75 0.249786 basechar 0
LayerCount: 2
Fore
SplineSet
670 327 m 0xac
 670 461 606 625 352 625 c 0
 311 625 300 617 300 586 c 2
 300 78 l 2
 300 46 312 37 352 37 c 0
 484.355 37 587.963 73.1815 637.7 170.319 c 1
 548.5 230 l 1
 569.024 260.508 l 1
 652.07 204.459 l 1
 663.772 238.903 670 279.502 670 327 c 0xac
729.399 152.267 m 1
 837.776 79.1211 l 1
 817.53 50 l 1
 708.485 122.959 l 1
 651.559 52.8365 553.915 -3.8147e-06 394 0 c 2xac
 110 0 l 1
 110 19 l 1
 186 24 198 37 198 109 c 2
 198 553 l 2
 198 627 189 636 110 643 c 1
 110 662 l 1x5c
 380 662 l 2
 697 662 779 479 779 334 c 0
 779 277.34 766.02 210.902 729.399 152.267 c 1
EndSplineSet
Validated: 1
LCarets2: 1 0 
Ligature2: "Functions" D grave
EndChar

StartChar: J
Encoding: 74 74 42
Width: 889
Flags: WO
HStem: -181 37<407.591 590.974> -181 19<214 269.978> 0 37<211.591 302> 0 19<18 73.9777> 8 48<404 453.529> 444 37<407.033 543.499> 462 19<257 289.695> 625 37<211.033 387.75> 643 19<18 73.4163>
VStem: 106 102<41.3888 621.94> 302 102<-139.611 0 56 440.775> 578 109<212.589 370.655> 774 109<29.7222 272.386>
AnchorPoint: "aj" 0 0 basechar 0
AnchorPoint: "subdegree" 96 0 basechar 0
LayerCount: 2
Fore
SplineSet
883 153 m 0x0178
 883 15 806 -181 498 -181 c 2x8178
 214 -181 l 1
 214 -162 l 1
 290 -157 302 -144 302 -72 c 2
 302 0 l 1x6078
 18 0 l 1
 18 19 l 1
 94 24 106 37 106 109 c 2
 106 553 l 2
 106 627 97 636 18 643 c 1
 18 662 l 1x10f8
 288 662 l 2
 520 662 626 564 666 455 c 1
 834 399 883 265 883 153 c 0x0178
685 371 m 1
 686 359 687 346 687 334 c 0
 687 213 628 47 404 8 c 1x8878
 404 -103 l 2
 404 -135 416 -144 456 -144 c 0
 644 -144 774 -71 774 146 c 0
 774 224 753 311 685 371 c 1
404 56 m 1
 511 90 578 171 578 327 c 0
 578 361 574 397 563 432 c 1
 532 440 496 444 456 444 c 0x0c78
 415 444 404 436 404 405 c 2
 404 56 l 1
302 38 m 1
 302 372 l 2
 302 446 299 462 257 462 c 1
 257 481 l 1x2378
 484 481 l 2
 505 481 526 480 545 479 c 1
 504 560 420 625 260 625 c 0
 219 625 208 617 208 586 c 2
 208 78 l 2
 208 46 220 37 260 37 c 0x2578
 274 37 288 37 302 38 c 1
EndSplineSet
EndChar

StartChar: questiondown
Encoding: 191 191 43
Width: 889
GlyphClass: 4
Flags: W
HStem: -330 48<142 1140> 346.502 47.498<1190 1726.04>
VStem: 90 52<-282 576> 1140 50<-282 346.502>
AnchorPoint: "aj" 200 0 mark 0
LayerCount: 2
Back
SplineSet
200 667 m 1
 1089 667 l 1
 1089 0 l 1
 200 0 l 1
 200 667 l 1
EndSplineSet
Fore
SplineSet
1727.05 346.502 m 1
 1190 346.502 l 1
 1190 -282 l 1
 1190 -330 l 1
 90 -330 l 1
 90 -282 l 1
 90 576 l 1
 142 576 l 1
 142 -282 l 1
 1140 -282 l 1
 1140.79 394 l 1
 1190 394 l 1
 1726.04 394 l 1
 1602.88 541 l 1
 1633.88 574 l 1
 1829.88 370 l 1
 1633.88 164 l 1
 1602.88 197 l 1
 1727.05 346.502 l 1
EndSplineSet
LCarets2: 1 0 
Ligature2: "Arrows" hyphen greater
EndChar

StartChar: hyphen
Encoding: 45 45 44
Width: 333
Flags: W
HStem: 194 63<39 285>
VStem: 39 246<194 257>
LayerCount: 2
Fore
SplineSet
39 257 m 1
 285 257 l 1
 285 194 l 1
 39 194 l 1
 39 257 l 1
EndSplineSet
Validated: 1
EndChar

StartChar: greater
Encoding: 62 62 45
Width: 564
Flags: W
LayerCount: 2
Fore
SplineSet
28 516 m 1
 536 286 l 1
 536 220 l 1
 28 -10 l 1
 28 62 l 1
 448 253 l 1
 28 444 l 1
 28 516 l 1
EndSplineSet
Validated: 1
EndChar

StartChar: less
Encoding: 60 60 46
Width: 564
Flags: W
LayerCount: 2
Fore
SplineSet
536 -10 m 1
 28 220 l 1
 28 286 l 1
 536 516 l 1
 536 444 l 1
 116 253 l 1
 536 62 l 1
 536 -10 l 1
EndSplineSet
Validated: 1
EndChar

StartChar: A
Encoding: 65 65 47
Width: 889
Flags: HWO
AnchorPoint: "aj" 0 0 basechar 0
LayerCount: 2
Fore
SplineSet
790 19 m 1
 790 0 l 1
 535 0 l 1
 535 19 l 1
 588 20 605 28 605 53 c 0
 605 67 598 93 586 120 c 2
 545 216 l 1
 283 216 l 1
 237 99 l 2
 232 86 229 72 229 60 c 0
 229 32 249 19 297 19 c 1
 297 0 l 1
 99 0 l 1
 99 19 l 1
 147 21 161 36 223 183 c 2
 431 674 l 1
 451 674 l 1
 700 106 l 2
 732.866 31.0283 745 22 790 19 c 1
300 257 m 1
 531 257 l 1
 415 532 l 1
 300 257 l 1
EndSplineSet
EndChar

StartChar: N
Encoding: 78 78 48
Width: 889
Flags: HW
AnchorPoint: "aj" 0 0 basechar 0
LayerCount: 2
Fore
SplineSet
792 643 m 1
 731 637 697 632 697 515 c 2
 697 -11 l 1
 680 -11 l 1
 238 539 l 1
 238 147 l 2
 238 46 255 23 332 19 c 1
 332 0 l 1
 97 0 l 1
 97 19 l 1
 180 25 194 44 194 147 c 2
 194 588 l 1
 154 635 140 643 97 643 c 1
 97 662 l 1
 268 662 l 1
 653 178 l 1
 653 515 l 2
 653 619 634 637 557 643 c 1
 557 662 l 1
 792 662 l 1
 792 643 l 1
EndSplineSet
EndChar
